<svg width="375" height="812" viewBox="0 0 375 812" fill="none" xmlns="http://www.w3.org/2000/svg">
<rect width="375" height="812" fill="white"/>
<path d="M299.239 406C299.239 458.621 262.692 502.717 213.587 514.271C205.383 516.219 196.813 517.239 188 517.239C169.308 517.239 151.697 512.627 136.232 504.483C100.872 485.852 76.7611 448.742 76.7611 406C76.7611 344.566 126.566 294.761 188 294.761C249.434 294.761 299.239 344.566 299.239 406Z" fill="#E5E5E5"/>
<path d="M184.012 326.209C170.358 319.07 162.321 336.818 165.624 349.254C168.927 361.69 177.543 369.59 177.543 369.59C177.543 369.59 190.572 350.791 190.618 341.963C190.694 331.034 189.111 328.872 184.012 326.209Z" fill="#3A3A3A"/>
<path d="M176.127 364.567C175.701 361.857 167.755 363.593 169.704 366.53C171.652 369.453 176.325 365.83 176.127 364.567Z" fill="#3A3A3A"/>
<path d="M175.457 364.947C172.946 363.851 170.145 371.493 173.661 371.417C177.193 371.34 176.645 365.465 175.457 364.947Z" fill="#3A3A3A"/>
<path d="M180.237 329.299C173.874 322.997 188.685 317.593 203.1 320.12C217.514 322.662 222.187 335.296 217.119 341.491C213.055 346.423 188.046 337.031 180.237 329.299Z" fill="#3A3A3A"/>
<path d="M179.643 325.509C181.911 323.971 176.964 317.517 175.153 320.531C173.326 323.545 178.578 326.239 179.643 325.509Z" fill="#3A3A3A"/>
<path d="M222.051 446.794C222.005 448.209 221.959 449.671 221.898 451.162C221.853 451.969 221.822 452.806 221.777 453.643C221.655 455.82 221.518 458.058 221.35 460.356C221.289 461.33 221.213 462.304 221.122 463.294C221.122 463.431 221.107 463.568 221.092 463.705C221.015 464.709 220.939 465.729 220.833 466.764C220.498 470.494 220.087 474.375 219.6 478.394C218.276 489.292 216.327 501.256 213.587 514.271C205.383 516.219 196.813 517.239 188 517.239C169.308 517.239 151.697 512.627 136.232 504.483C137.099 497.223 138.241 487.77 139.185 476.841C139.702 470.905 140.174 464.512 140.509 457.814C140.524 457.312 140.554 456.794 140.57 456.292C140.646 454.663 140.722 453.019 140.783 451.36C140.813 450.34 140.844 449.32 140.874 448.285C140.92 446.9 140.95 445.5 140.981 444.084L141.026 440.614V439.152C141.042 438.376 141.042 437.585 141.042 436.793C141.042 434.129 141.011 431.45 140.95 428.741V428.604C140.798 421.602 140.433 414.463 139.793 407.263C139.763 406.837 139.733 406.396 139.687 405.97C139.352 402.347 140.524 398.922 142.67 396.319C144.923 393.564 148.287 391.722 152.123 391.479C152.199 391.479 152.29 391.479 152.366 391.463C154.117 391.357 155.989 391.281 157.877 391.22C159.597 391.174 161.347 391.144 163.098 391.159H164.087C165.015 391.174 166.005 391.189 167.009 391.22C168.075 391.25 169.186 391.281 170.313 391.311C171.256 391.326 172.2 391.357 173.159 391.387C178.578 391.585 184.347 391.89 189.416 392.346C189.75 392.377 190.085 392.407 190.405 392.438C192.353 392.62 194.165 392.833 195.809 393.062C196.128 393.107 196.448 393.153 196.752 393.199C198.077 393.397 199.386 393.625 200.664 393.884C200.877 393.914 201.09 393.96 201.288 394.005C203.389 394.416 205.398 394.873 207.27 395.314C213.831 396.913 218.595 398.541 218.595 398.541C218.595 398.541 218.61 398.572 218.626 398.633C218.793 399.333 219.935 404.006 220.878 412.484C221.518 418.284 222.081 425.879 222.172 435.18C222.172 435.18 222.172 435.18 222.172 435.195C222.218 438.802 222.188 442.669 222.051 446.794Z" fill="#3A3A3A"/>
<path d="M246.085 477.465C245.948 475.44 245.674 474.116 245.37 472.822C244.731 470.143 244.183 468.667 243.619 466.719L240.24 455.546L233.497 433.125C231.244 425.651 228.915 418.162 226.51 410.764L205.642 417.096C207.818 424.738 210.178 432.242 212.674 439.731C215.155 447.235 217.758 454.694 220.498 462.122C220.65 462.548 220.818 462.974 220.97 463.4L213.907 469.687C215.977 473.401 218.26 476.734 220.909 480.098C222.279 481.742 223.649 483.432 225.414 485.076C226.297 485.913 227.256 486.765 228.55 487.679C229.235 488.135 229.981 488.638 231.153 489.14C231.442 489.262 231.747 489.383 232.142 489.505L232.706 489.688L233.436 489.855C234.365 490.038 235.811 490.251 237.744 489.855C238.261 489.749 238.764 489.596 239.266 489.414C239.829 489.201 240.377 488.927 240.91 488.607C241.915 488.013 242.98 487.07 243.589 486.263C245.05 484.406 245.4 483.036 245.735 481.818C246.238 479.626 246.116 478.53 246.085 477.465Z" fill="#FFC3BD"/>
<path d="M203.907 406.685C198.275 419.228 216.068 455.211 216.068 455.211L240.24 448.544C240.24 448.544 241.123 427.127 232.142 411.754C222.933 395.984 210.102 392.91 203.907 406.685Z" fill="#3A3A3A"/>
<path d="M205.109 397.171C204.485 395.528 203.008 394.34 201.288 394.005C201.075 393.96 200.877 393.929 200.664 393.884C199.386 393.625 198.077 393.412 196.737 393.199C187.863 391.829 172.946 391.281 163.098 391.159C163.098 391.174 163.098 391.159 163.098 391.174L166.203 394.903C170.373 399.866 178.121 409.105 192.612 410.916C193.708 411.053 194.743 411.13 195.717 411.13C201.349 411.13 203.891 408.74 205.033 406.715C206.677 403.808 206.281 400.231 205.109 397.171Z" fill="#E5E5E5"/>
<path opacity="0.2" d="M154.33 423.124L140.95 428.315C140.95 428.467 140.965 428.589 140.935 428.741C141.102 436.519 141.026 444.1 140.752 451.36C154.71 445.576 154.954 428.208 154.33 423.124Z" fill="#3A3A3A"/>
<path d="M175.96 371.386C176.492 378.936 175.153 386.973 169.43 392.163C168.943 392.605 168.866 393.336 169.293 393.838C174.392 399.805 181.181 406.396 192.993 407.887C205.078 409.409 204.059 401.129 201.334 396.243C201.197 395.999 200.953 395.817 200.695 395.71C190.907 392.224 192.003 385.466 193.145 378.038C193.388 376.47 192.597 374.917 191.181 374.187L180.222 368.555C178.197 367.535 175.807 369.103 175.96 371.386Z" fill="#FFC3BD"/>
<path opacity="0.2" d="M193.084 378.479L181.196 378.053C181.379 378.601 181.607 379.164 181.835 379.697C183.449 383.594 187.985 386.729 192.825 388.404C192.018 385.466 192.536 382.041 193.084 378.479Z" fill="#3A3A3A"/>
<path d="M178.837 342.694C174.788 356.393 171.713 364.202 175.975 373.532C182.383 387.582 201.151 387.46 209.219 375.252C216.479 364.262 221.883 343.713 210.71 333.606C199.705 323.667 182.886 328.994 178.837 342.694Z" fill="#FFC3BD"/>
<path d="M175.549 355.845C185.245 361.005 198.335 326.939 184.347 326.939C170.373 326.939 171.013 353.44 175.549 355.845Z" fill="#3A3A3A"/>
<path d="M168.547 349.954C168.41 353.805 170.069 357.352 172.276 359.635C175.579 363.06 178.41 360.472 179.506 356.104C180.496 352.162 181.181 345.845 176.888 344.048C172.657 342.283 168.699 345.555 168.547 349.954Z" fill="#FFC3BD"/>
<path d="M197.102 353.197C196.707 354.292 196.965 355.388 197.681 355.647C198.396 355.906 199.294 355.236 199.69 354.14C200.086 353.044 199.827 351.948 199.112 351.69C198.396 351.446 197.498 352.116 197.102 353.197Z" fill="#3A3A3A"/>
<path d="M210.543 358.463C210.147 359.559 210.406 360.655 211.121 360.914C211.837 361.172 212.735 360.503 213.131 359.407C213.526 358.311 213.268 357.215 212.552 356.956C211.837 356.697 210.939 357.382 210.543 358.463Z" fill="#3A3A3A"/>
<path d="M205.992 357.428C205.992 357.428 206.174 364.628 207.803 368.646C205.215 369.742 202.232 367.733 202.232 367.733L205.992 357.428Z" fill="#ED847E"/>
<path d="M199.279 370.808C195.154 369.118 193.936 365.648 193.891 365.48C193.83 365.297 193.921 365.115 194.104 365.054C194.286 364.993 194.469 365.084 194.53 365.267C194.545 365.313 195.961 369.346 200.893 370.625C201.075 370.671 201.182 370.853 201.136 371.036C201.091 371.219 200.908 371.325 200.725 371.28C200.208 371.143 199.736 370.975 199.279 370.808Z" fill="#3A3A3A"/>
<path d="M196.554 347.93C196.448 347.884 196.372 347.793 196.296 347.702C196.098 347.382 196.189 346.956 196.494 346.758C199.66 344.703 202.552 345.951 202.674 346.012C203.024 346.164 203.176 346.575 203.024 346.91C202.871 347.26 202.476 347.412 202.126 347.26C202.034 347.214 199.766 346.271 197.239 347.899C197.026 348.036 196.752 348.036 196.554 347.93Z" fill="#3A3A3A"/>
<path d="M218.626 356.21C218.428 356.104 218.291 355.906 218.26 355.678C217.956 352.679 215.794 351.522 215.703 351.461C215.368 351.294 215.246 350.883 215.414 350.548C215.581 350.213 215.992 350.091 216.327 350.259C216.449 350.32 219.235 351.796 219.615 355.541C219.661 355.921 219.387 356.256 219.006 356.286C218.869 356.302 218.747 356.271 218.626 356.21Z" fill="#3A3A3A"/>
<path d="M187.33 440.309C182.459 442.41 177.528 444.632 172.565 446.626C167.634 448.696 162.702 450.675 157.785 452.517C152.869 454.313 147.952 456.033 143.249 457.175C142.198 457.433 141.148 457.677 140.143 457.86C140.554 456.277 141.026 454.678 141.529 453.08C143.005 448.483 144.969 443.901 147.085 439.35C149.261 434.814 151.636 430.309 154.208 425.894C155.472 423.672 156.781 421.48 158.135 419.319L160.19 416.107C160.845 415.072 161.606 413.915 162.169 413.093L144.512 400.277C143.492 401.662 142.731 402.758 141.879 403.975C141.072 405.178 140.296 406.396 139.519 407.613C137.982 410.049 136.506 412.515 135.075 415.011C132.274 420.034 129.686 425.209 127.418 430.598C125.135 435.971 123.202 441.573 121.695 447.418C120.919 450.34 120.356 453.354 119.914 456.429C119.792 457.19 119.701 457.966 119.625 458.758L119.503 459.93L119.442 460.508L119.366 461.543C119.275 462.883 119.366 464.633 119.808 466.505C120.295 468.454 121.36 470.691 122.989 472.472C124.633 474.299 126.566 475.38 128.255 476.049C129.991 476.734 131.361 476.932 132.7 477.084C135.257 477.313 137.221 477.1 139.048 476.826C142.655 476.247 145.608 475.319 148.5 474.314C154.178 472.229 159.338 469.824 164.33 467.19C174.346 461.969 183.631 456.094 192.734 449.594L187.33 440.309Z" fill="#FFC3BD"/>
<path d="M149.703 392.118C136.064 393.914 125.029 433.931 125.029 433.931L152.549 442.912C152.549 442.912 156.705 434.373 165.168 418.725C174.392 401.692 166.218 389.941 149.703 392.118Z" fill="#3A3A3A"/>
<path d="M203.572 432.988L196.661 432.577C195.428 432.5 194.226 432.911 193.297 433.718L183.327 442.318L187.239 450.127C193.069 454.237 202.78 445.013 202.78 445.013L206.327 444.175C209.112 443.521 210.391 440.279 208.793 437.889L206.722 434.814C206.007 433.733 204.85 433.064 203.572 432.988Z" fill="#FFC3BD"/>
<path d="M212.172 466.688L200.497 464.907C199.294 464.725 198.579 463.446 199.051 462.32L210.573 434.875C210.908 434.084 211.73 433.612 212.583 433.749L224.258 435.53C225.46 435.712 226.175 436.991 225.704 438.117L214.181 465.562C213.846 466.353 213.024 466.81 212.172 466.688Z" fill="white"/>
<path d="M213.74 466.901L202.065 465.12C200.862 464.938 200.147 463.659 200.619 462.533L212.141 435.088C212.476 434.297 213.298 433.825 214.151 433.962L225.825 435.743C227.028 435.925 227.743 437.204 227.271 438.33L215.749 465.775C215.429 466.566 214.592 467.023 213.74 466.901Z" fill="#E5E5E5"/>
<path d="M224.288 463.903L212.217 449.29L205.505 464.238C205.505 464.238 209.493 469.839 216.084 470.707L224.288 463.903Z" fill="#FFC3BD"/>
<path d="M198.488 451.345L199.203 456.277C199.431 457.814 200.162 459.23 201.304 460.28L205.52 464.222L212.233 449.275L202.887 447.25C200.39 446.718 198.122 448.818 198.488 451.345Z" fill="#FFC3BD"/>
<path d="M200.375 335.524C196.372 344.261 222.933 354.582 222.903 342.237C222.872 329.908 202.247 331.43 200.375 335.524Z" fill="#3A3A3A"/>
<path d="M183.936 330.425C180.496 340.852 228.718 346.469 226.358 332.678C223.984 318.902 185.549 325.539 183.936 330.425Z" fill="#3A3A3A"/>
<path d="M198.305 333.408C202.308 342.146 227.469 328.796 218.108 320.744C208.747 312.707 196.433 329.314 198.305 333.408Z" fill="#3A3A3A"/>
<path d="M188 518C126.246 518 76 467.754 76 406C76 344.246 126.246 294 188 294C249.754 294 300 344.246 300 406C300 467.754 249.754 518 188 518ZM188 295.522C127.083 295.522 77.5222 345.083 77.5222 406C77.5222 466.917 127.083 516.478 188 516.478C248.917 516.478 298.478 466.917 298.478 406C298.478 345.083 248.917 295.522 188 295.522Z" fill="#E5E5E5"/>
</svg>
