<svg width="6" height="10" viewBox="0 0 6 10" fill="none" xmlns="http://www.w3.org/2000/svg">
<path d="M4.95254 1.04616L5.12576 0.865891C4.95822 0.704908 4.69487 0.714209 4.53701 0.877711L4.537 0.87771L4.5362 0.878551L0.869398 4.71192L0.869231 4.71209C0.715464 4.87316 0.715464 5.12677 0.86923 5.28783L0.869398 5.288L4.53621 9.12137L4.53667 9.12185C4.61817 9.2066 4.72753 9.25 4.83731 9.25C4.93999 9.25 5.04454 9.21192 5.12553 9.13428M4.95254 1.04616L5.12551 0.865658C5.29162 1.02484 5.2971 1.28825 5.13865 1.45438L5.1384 1.45463L5.1384 1.45463L1.74726 4.99996L5.13842 8.5453L5.13866 8.54556C5.29712 8.71169 5.29163 8.97509 5.12553 9.13428M4.95254 1.04616C5.01895 1.1098 5.02123 1.21527 4.95774 1.28183L4.95254 1.04616ZM5.12553 9.13428L4.95255 8.95378M5.12553 9.13428C5.12556 9.13425 5.12559 9.13422 5.12562 9.1342L4.95255 8.95378M4.95255 8.95378C5.01896 8.89014 5.02124 8.78467 4.95776 8.71811L1.05006 4.88472C0.988522 4.94918 0.988522 5.05074 1.05006 5.1152L4.71687 8.94856C4.74975 8.98275 4.79336 9 4.83731 9C4.87866 9 4.92032 8.9847 4.95255 8.95378Z" fill="#466CF9" stroke="#466CF9" stroke-width="0.5" stroke-linejoin="round"/>
</svg>
