<svg width="6" height="10" viewBox="0 0 6 10" fill="none" xmlns="http://www.w3.org/2000/svg">
<path d="M1.04746 1.04616L0.874243 0.865891C1.04178 0.704908 1.30513 0.714209 1.46299 0.877711L1.463 0.87771L1.4638 0.878551L5.1306 4.71192L5.13077 4.71209C5.28454 4.87316 5.28454 5.12677 5.13077 5.28783L5.1306 5.288L1.46379 9.12137L1.46333 9.12185C1.38183 9.2066 1.27247 9.25 1.16269 9.25C1.06001 9.25 0.95546 9.21192 0.874471 9.13428M1.04746 1.04616L0.874486 0.865658C0.708379 1.02484 0.702901 1.28825 0.861351 1.45438L0.861597 1.45463L0.861597 1.45463L4.25274 4.99996L0.861582 8.5453L0.861336 8.54556C0.702885 8.71169 0.708365 8.97509 0.874471 9.13428M1.04746 1.04616C0.981053 1.1098 0.978772 1.21527 1.04226 1.28183L1.04746 1.04616ZM0.874471 9.13428L1.04745 8.95378M0.874471 9.13428C0.874442 9.13425 0.874414 9.13422 0.874385 9.1342L1.04745 8.95378M1.04745 8.95378C0.981038 8.89014 0.978757 8.78467 1.04224 8.71811L4.94994 4.88472C5.01148 4.94918 5.01148 5.05074 4.94994 5.1152L1.28313 8.94856C1.25025 8.98275 1.20664 9 1.16269 9C1.12134 9 1.07968 8.9847 1.04745 8.95378Z" fill="#466CF9" stroke="#466CF9" stroke-width="0.5" stroke-linejoin="round"/>
</svg>
